<?xml version="1.0" standalone="no"?>
<!DOCTYPE svg PUBLIC "-//W3C//DTD SVG 20010904//EN"
 "http://www.w3.org/TR/2001/REC-SVG-20010904/DTD/svg10.dtd">
<svg version="1.0" xmlns="http://www.w3.org/2000/svg"
 width="335.000000pt" height="358.000000pt" viewBox="0 0 335.000000 358.000000"
 preserveAspectRatio="xMidYMid meet">

<g transform="translate(0.000000,358.000000) scale(0.100000,-0.100000)"
fill="#000000" stroke="none">
<path d="M2222 3192 c-8 -6 -15 -47 -20 -121 l-7 -113 -82 71 c-45 39 -89 71
-97 71 -8 0 -20 -9 -26 -20 -12 -23 -1 -37 113 -135 l57 -50 -110 -140 c-60
-77 -116 -141 -124 -143 -8 -2 -40 4 -73 13 -92 26 -319 31 -423 10 -47 -9
-97 -19 -111 -22 -23 -4 -36 8 -127 126 -56 71 -102 134 -102 139 0 5 34 35
75 66 75 57 85 72 63 94 -20 20 -36 14 -111 -42 -39 -30 -73 -54 -74 -52 -2 1
1 34 6 72 9 76 1 104 -30 104 -24 0 -39 -35 -40 -93 -1 -23 -4 -52 -7 -65 -7
-22 -9 -21 -67 28 -62 53 -80 57 -99 27 -9 -16 0 -29 68 -91 l79 -73 -53 -269
-54 -269 -53 -65 c-65 -79 -155 -258 -182 -360 -85 -321 -23 -646 175 -909
l46 -61 943 0 c1082 0 965 -13 965 104 0 86 -29 162 -86 225 l-45 50 16 60
c79 306 -3 668 -206 911 -37 45 -38 50 -88 305 -28 143 -53 269 -56 281 -3 16
17 38 95 103 102 84 105 87 94 115 -11 28 -45 17 -103 -32 -105 -89 -95 -92
-88 29 4 73 2 110 -6 118 -13 13 -27 14 -45 3z m-1077 -507 c134 -170 112
-160 265 -126 160 35 301 28 527 -26 21 -5 77 59 244 277 l26 34 53 -274 c37
-193 58 -282 71 -300 11 -14 39 -50 62 -81 164 -214 227 -517 167 -802 -10
-48 -15 -57 -28 -52 -57 22 -132 26 -193 10 -145 -36 -243 -150 -256 -296 l-6
-59 -607 0 -607 0 -42 60 c-61 87 -127 232 -152 336 -31 125 -31 323 -1 447
37 150 87 247 221 432 25 35 35 69 71 260 50 264 61 317 65 313 2 -2 56 -70
120 -153z m1342 -1410 c92 -27 165 -112 184 -212 14 -71 11 -73 -112 -73
l-110 0 7 74 c6 71 6 74 -16 81 -31 10 -50 -16 -50 -69 0 -75 -7 -86 -54 -86
l-42 0 7 63 c6 64 -2 97 -25 97 -24 0 -35 -24 -42 -93 l-7 -67 -38 0 c-39 0
-39 0 -39 39 0 85 52 174 127 218 75 44 131 51 210 28z"/>
<path d="M1496 2503 c-3 -16 -8 -52 -12 -81 -6 -52 -5 -54 17 -50 22 3 25 10
32 72 7 53 6 71 -5 77 -21 14 -26 11 -32 -18z"/>
<path d="M1591 2443 c-25 -52 -29 -68 -19 -74 23 -15 27 -11 63 60 29 58 32
70 19 75 -26 10 -29 8 -63 -61z"/>
<path d="M1378 2489 c-16 -9 -15 -15 14 -74 31 -63 53 -80 64 -51 4 11 -50
137 -59 136 -1 0 -10 -5 -19 -11z"/>
<path d="M1710 2412 c-26 -13 -35 -24 -35 -42 0 -32 24 -37 80 -15 47 17 62
39 44 61 -15 18 -46 17 -89 -4z"/>
<path d="M1283 2374 c-24 -10 -15 -54 13 -64 37 -14 52 -12 63 9 18 32 -36 71
-76 55z"/>
<path d="M1474 2262 c-13 -9 -86 -108 -103 -140 -10 -18 -10 -27 0 -38 21 -26
46 -15 82 37 l36 51 36 -51 c38 -52 63 -63 85 -36 14 17 -8 57 -77 143 -36 44
-41 47 -59 34z"/>
<path d="M872 708 c-40 -11 -67 -62 -53 -100 6 -17 5 -30 -5 -43 -36 -49 2
-121 68 -132 77 -12 128 22 128 85 0 21 -3 42 -7 46 -5 4 -8 30 -8 57 0 30 -6
54 -16 64 -22 23 -70 33 -107 23z m63 -78 c0 -20 -6 -26 -28 -28 -18 -2 -29 2
-33 12 -11 28 4 48 33 44 22 -2 28 -8 28 -28z m19 -97 c13 -34 -24 -60 -70
-49 -17 5 -24 13 -24 30 0 12 2 25 4 27 11 10 86 4 90 -8z"/>
<path d="M1183 708 c-45 -12 -67 -48 -59 -98 3 -22 2 -41 -4 -45 -5 -3 -10
-24 -10 -45 0 -30 6 -43 31 -64 86 -72 218 13 167 107 -6 12 -11 40 -9 62 1
22 -4 48 -11 58 -18 24 -67 35 -105 25z m57 -63 c19 -23 4 -45 -29 -45 -32 0
-48 24 -30 46 15 18 43 18 59 -1z m18 -119 c2 -9 -2 -23 -8 -31 -27 -33 -98
-6 -86 31 5 17 14 20 49 18 30 -1 43 -6 45 -18z"/>
<path d="M1630 691 c0 -22 5 -31 16 -31 13 0 15 -8 10 -47 -3 -27 -8 -79 -12
-117 l-7 -69 24 6 c13 4 27 7 31 7 3 0 9 23 13 50 l7 50 68 0 c61 0 68 2 73
22 9 33 1 38 -69 38 l-64 0 0 31 0 32 79 -7 79 -6 6 26 c4 15 5 29 2 31 -3 3
-61 7 -130 10 l-126 6 0 -32z"/>
<path d="M2000 582 c0 -76 2 -141 5 -144 3 -2 18 -3 33 0 l29 4 6 131 c6 142
5 147 -45 147 l-28 0 0 -138z"/>
<path d="M2381 585 c-18 -36 -36 -65 -41 -65 -13 0 -55 54 -69 89 -15 34 -27
38 -56 17 -19 -14 -19 -16 -3 -50 10 -19 34 -54 55 -77 l37 -41 -27 -22 -27
-22 29 -17 29 -17 44 49 c40 44 125 188 116 195 -6 6 -47 26 -51 26 -2 0 -19
-29 -36 -65z"/>
</g>
</svg>
